<svg xmlns="http://www.w3.org/2000/svg" width="370.589" height="370.589" viewBox="0 0 370.589 370.589"><g fill="#FED42A"><path d="M5.806 224.753c-7.741 7.741-7.741 20.291.002 28.034l10.114 10.114 24.18-9.46-9.112 24.529 50.811 50.812 39.014-22.66-19.858 41.815 16.843 16.844c7.743 7.743 20.293 7.743 28.034.002l91.812-91.812-140.028-140.03-91.812 91.812zM358.83 11.841l-.082-.083c-9.66-9.66-21.981-13.478-35.631-11.043-27.59 4.924-56.519 34.861-77.384 80.087-5.788 12.546-13.997 19.607-25.101 21.588-21.311 3.803-48.293-11.741-64.344-27.792a8.61 8.61 0 0 0-12.176.001l-16.685 16.686 24.651 24.651a8.197 8.197 0 0 1 0 11.594 8.197 8.197 0 0 1-11.594 0l-24.651-24.651-6.178 6.178a8.61 8.61 0 0 0-.002 12.178l139.703 139.703c3.361 3.361 8.812 3.36 12.177-.002l34.458-34.458a8.613 8.613 0 0 0 .001-12.177c-16.051-16.051-31.595-43.034-27.792-64.344 1.98-11.103 9.042-19.312 21.588-25.1 45.226-20.865 75.163-49.793 80.087-77.383 2.434-13.652-1.385-25.973-11.045-35.633zm-15.774 36.905c-5.857 5.857-15.354 5.857-21.213 0-5.856-5.858-5.856-15.355 0-21.213 5.858-5.858 15.355-5.858 21.213 0 5.858 5.858 5.858 15.355 0 21.213z"/></g></svg>